# xmcd CD database file
#
# Track frame offsets:
#	150
#	11911
#	28293
#	44013
#	58112
#	81746
#	95602
#	112039
#	147087
#	160845
#	178092
#	201908
#	226827
#	245078
#	259877
#	279475
#	301734
#
# Disc length: 4262 seconds
#
# Revision: 4
# Processed by: cddbd v1.4PL0 Copyright (c) Steve Scherf et al.
# Submitted via: CDex 1.50Beta7
#
DISCID=fe10a411
DTITLE=Marilyn Manson - Day Of The Dead
DYEAR=1900
DGENRE=New Age
TTITLE0=Intro
TTITLE1=Irresposible Hate Anthem
TTITLE2=The Death Song
TTITLE3=Disposable Teens
TTITLE4=Touriquet
TTITLE5=The Fight Song
TTITLE6=The Nobodies
TTITLE7=Lunchbox
TTITLE8=Rock Is Dead
TTITLE9=The Dope Show
TTITLE10=Circifuction In Space
TTITLE11=Sweet Dreams
TTITLE12=Valentines Day
TTITLE13=The Love Song
TTITLE14=The Beutiful People
TTITLE15=The Grear Big White World
TTITLE16=Cake And Sodey
EXTD=
EXTT0=
EXTT1=
EXTT2=
EXTT3=
EXTT4=
EXTT5=
EXTT6=
EXTT7=
EXTT8=
EXTT9=
EXTT10=
EXTT11=
EXTT12=
EXTT13=
EXTT14=
EXTT15=
EXTT16=
PLAYORDER=
